<svg xmlns="http://www.w3.org/2000/svg" width="600" height="360" viewBox="0 0 600 360">
  <defs>
    <linearGradient id="bg" x1="0" y1="0" x2="1" y2="1">
      <stop offset="0%" stop-color="#f0fdf4"/>
      <stop offset="100%" stop-color="#dcfce7"/>
    </linearGradient>
  </defs>
  <rect width="600" height="360" fill="url(#bg)" rx="8"/>
  <rect x="20" y="20" width="560" height="40" fill="#16a34a" rx="6"/>
  <text x="40" y="46" fill="white" font-family="monospace" font-size="14" font-weight="bold">
    v1 初始版本截图 · 毫米单位
  </text>
  <g font-family="monospace" font-size="13">
    <text x="40" y="90" fill="#14532d">公式: a_n = a_{n-1} + d</text>
    <text x="40" y="112" fill="#14532d">参数: a0=10 mm, d=10 mm, n=5</text>
    <text x="40" y="134" fill="#14532d">结果: 10, 20, 30, 40, 50, 60 毫米</text>
  </g>
  <g transform="translate(40, 160)">
    <rect width="520" height="160" fill="white" stroke="#86efac" stroke-width="1" rx="4"/>
    <polyline points="
      0,140 104,115 208,90 312,65 416,40 520,15
    " fill="none" stroke="#16a34a" stroke-width="2"/>
    <circle cx="0" cy="140" r="3" fill="#16a34a"/>
    <circle cx="104" cy="115" r="3" fill="#16a34a"/>
    <circle cx="208" cy="90" r="3" fill="#16a34a"/>
    <circle cx="312" cy="65" r="3" fill="#16a34a"/>
    <circle cx="416" cy="40" r="3" fill="#16a34a"/>
    <circle cx="520" cy="15" r="3" fill="#16a34a"/>
    <text x="0" y="158" font-size="10" fill="#64748b" font-family="monospace">10mm</text>
    <text x="208" y="158" font-size="10" fill="#64748b" font-family="monospace">30mm</text>
    <text x="416" y="158" font-size="10" fill="#64748b" font-family="monospace">50mm</text>
    <text x="480" y="8" font-size="10" fill="#64748b" font-family="monospace">60mm</text>
  </g>
  <text x="40" y="345" fill="#94a3b8" font-size="11" font-family="monospace">
    截图时间: 2026-06-17 16:20:33 · 操作人: 阿宁
  </text>
</svg>
